{"title":"Town Creek-AC3-5,1-DVDRip[Eng]2009","uid":5302155,"size":1464499679,"categoryP":"video","categoryS":"movies","magnet":"?xt=urn:btih:92e2c8e8093818172e2c50fd315263abfb58987e&amp;dn=Town+Creek-AC3-5%2C1-DVDRip%5BEng%5D2009&amp;tr=udp%3A%2F%2Ftracker.openbittorrent.com%3A80&amp;tr=udp%3A%2F%2Fopen.demonii.com%3A1337&amp;tr=udp%3A%2F%2Ftracker.coppersurfer.tk%3A6969&amp;tr=udp%3A%2F%2Fexodus.desync.com%3A6969","seeders":1,"leechers":0,"uploader":"FatFreddy31","files":-1,"time":1264259747,"description":" &lt;a href=&quot;http://www.imdb.com/title/tt0450336/&quot; rel=&quot;nofollow&quot; target=&quot;_NEW&quot;&gt;http://www.imdb.com/title/tt0450336/&lt;/a&gt;\n\nAKA Blood Creek\n\nUser Rating:7.5/10 - 191 votes \n\nDrama,Horror,Thriller \n\nDirector:Joel Schumacher\n\nCast:Dominic Purcell/Henry Cavill/Michael Fassbender/Emma Booth, and others.\n\nPlot:\nA man and his brother on a mission of revenge become trapped in a harrowing occult experiment dating back to the Third Reich. \n\nInfo:\n\nCover included.\n\nGeneral\nComplete name                    : Town Creek-AC3-5,1-DVDRip[Eng]2009.avi\nFormat                           : AVI\nFormat/Info                      : Audio Video Interleave\nFile size                        : 1.36 GiB\nDuration                         : 1h 30mn\nOverall bit rate                 : 2 160 Kbps\nWriting application              : VirtualDubMod 1.5.4.1 (build 2178/release)\nWriting library                  : VirtualDubMod build 2178/release\n\nVideo\nID                               : 0\nFormat                           : MPEG-4 Visual\nFormat profile                   : Simple@L3\nFormat settings, BVOP            : No\nFormat settings, QPel            : No\nFormat settings, GMC             : No warppoints\nFormat settings, Matrix          : Default (H.263)\nCodec ID                         : XVID\nCodec ID/Hint                    : XviD\nDuration                         : 1h 30mn\nBit rate                         : 1 703 Kbps\nWidth                            : 640 pixels\nHeight                           : 272 pixels\nDisplay aspect ratio             : 2.35:1\nFrame rate                       : 23.976 fps\nResolution                       : 24 bits\nColorimetry                      : 4:2:0\nScan type                        : Progressive\nBits/(Pixel*Frame)               : 0.408\nStream size                      : 1.07 GiB (79%)\nWriting library                  : XviD 1.1.2 (UTC 2006-11-01)\n\nAudio\nID                               : 1\nFormat                           : AC-3\nFormat/Info                      : Audio Coding 3\nCodec ID                         : 2000\nDuration                         : 1h 30mn\nBit rate mode                    : Constant\nBit rate                         : 448 Kbps\nChannel(s)                       : 6 channels\nChannel positions                : Front: L C R, Surround: L R, LFE\nSampling rate                    : 48.0 KHz\nStream size                      : 289 MiB (21%)\nAlignment                        : Split accross interleaves\nInterleave, duration             : 42 ms (1.00 video frame)\nInterleave, preload duration     : 500 ms\n\nEnjoy...","torrent":{"xt":"urn:btih:92e2c8e8093818172e2c50fd315263abfb58987e","amp;dn":"Town+Creek-AC3-5%2C1-DVDRip%5BEng%5D2009","amp;tr":["udp%3A%2F%2Ftracker.openbittorrent.com%3A80","udp%3A%2F%2Fopen.demonii.com%3A1337","udp%3A%2F%2Ftracker.coppersurfer.tk%3A6969","udp%3A%2F%2Fexodus.desync.com%3A6969"],"infoHash":"92e2c8e8093818172e2c50fd315263abfb58987e","infoHashBuffer":{"type":"Buffer","data":[146,226,200,232,9,56,24,23,46,44,80,253,49,82,99,171,251,88,152,126]},"announce":[],"urlList":[]}}